<?xml version="1.0" encoding="UTF-8" standalone="no"?>
<svg
   width="118.28728"
   height="24.088184"
   viewBox="0 0 118.28728 24.088184"
   fill="none"
   version="1.1"
   id="svg43"
   sodipodi:docname="logo.svg"
   inkscape:version="1.1.1 (3bf5ae0d25, 2021-09-20)"
   xmlns:inkscape="http://www.inkscape.org/namespaces/inkscape"
   xmlns:sodipodi="http://sodipodi.sourceforge.net/DTD/sodipodi-0.dtd"
   xmlns="http://www.w3.org/2000/svg"
   xmlns:svg="http://www.w3.org/2000/svg">
  <defs
     id="defs47" />
  <sodipodi:namedview
     id="namedview45"
     pagecolor="#ffffff"
     bordercolor="#666666"
     borderopacity="1.0"
     inkscape:pageshadow="2"
     inkscape:pageopacity="0.0"
     inkscape:pagecheckerboard="0"
     showgrid="false"
     fit-margin-top="0"
     fit-margin-left="0"
     fit-margin-right="0"
     fit-margin-bottom="0"
     inkscape:zoom="5.4865058"
     inkscape:cx="-43.561423"
     inkscape:cy="19.046731"
     inkscape:window-width="1920"
     inkscape:window-height="1017"
     inkscape:window-x="-8"
     inkscape:window-y="-8"
     inkscape:window-maximized="1"
     inkscape:current-layer="svg43" />
  <path
     d="m 17.709399,8.8538846 c 0,-2.5938 0.61459,-4.6823 1.84378,-6.26565 1.2396,-1.58333 2.9062,-2.375 5,-2.375 1.8541,0 3.2969,0.63542 4.3281,1.90625 l 0.1875,-1.59375 h 4.0937 V 16.869485 c 0,1.4792 -0.3385,2.7656 -1.0156,3.8594 -0.6666,1.0937 -1.6094,1.9271 -2.8281,2.5 -1.2187,0.5729 -2.6458,0.8593 -4.2813,0.8593 -1.2395,0 -2.4479,-0.25 -3.625,-0.75 -1.177,-0.4895 -2.0677,-1.125 -2.67182,-1.9062 l 2.00002,-2.75 c 1.125,1.2604 2.4896,1.8906 4.0937,1.8906 1.1979,0 2.1302,-0.3229 2.7969,-0.9687 0.6667,-0.6354 1,-1.5417 1,-2.7188 v -0.9062 c -1.0417,1.1771 -2.4115,1.7656 -4.1094,1.7656 -2.0312,0 -3.6771,-0.7917 -4.9375,-2.375 -1.24998,-1.5937 -1.87498,-3.7031 -1.87498,-6.3281004 z m 4.51568,0.3281 c 0,1.5312004 0.3072,2.7344004 0.9218,3.6094004 0.6146,0.8646 1.4584,1.2968 2.5313,1.2968 1.375,0 2.3593,-0.5156 2.9531,-1.5468 V 5.4319846 c -0.6042,-1.0312 -1.5781,-1.5469 -2.9219,-1.5469 -1.0833,0 -1.9375,0.4427 -2.5625,1.3281 -0.6146,0.8855 -0.9218,2.2084 -0.9218,3.9688 z"
     fill="#e1e1e6"
     id="path31" />
  <path
     d="m 0,8.6406506 c 0,-2.5938 0.61459,-4.6823 1.84378,-6.2656501 C 3.08338,0.7916705 4.74998,0 6.84378,0 c 1.8540999,0 3.2969,0.6354205 4.3281,1.9062505 L 11.35938,0.3125 h 4.0937 v 16.343752 c 0,1.4792 -0.3385,2.7656 -1.0156,3.8594 -0.6666,1.0937 -1.6094,1.9271 -2.8281,2.5 -1.2187,0.5729 -2.6458001,0.8593 -4.2813001,0.8593 -1.2394999,0 -2.4478999,-0.25 -3.6249999,-0.75 -1.177,-0.4895 -2.0677,-1.125 -2.67182,-1.9062 l 2.00002,-2.75 c 1.125,1.2604 2.4896,1.8906 4.0936999,1.8906 1.1979,0 2.1302001,-0.3229 2.7969001,-0.9687 0.6667,-0.6354 1,-1.5417 1,-2.7188 v -0.9062 c -1.0417,1.1771 -2.4115001,1.7656 -4.1094,1.7656 -2.0312,0 -3.6771,-0.7917 -4.9375,-2.375 C 0.625,13.562552 0,11.453152 0,8.8281506 Z m 4.51568,0.3281 c 0,1.5312014 0.3072,2.7344014 0.9218,3.6094014 0.6146,0.8646 1.4583999,1.2968 2.5312999,1.2968 1.3750001,0 2.3593001,-0.5156 2.9531001,-1.5468 V 5.2187506 c -0.6042,-1.0312 -1.5781,-1.5469 -2.9219001,-1.5469 -1.0833,0 -1.9374999,0.4427 -2.5624999,1.3281 -0.6146,0.8855 -0.9218,2.2084 -0.9218,3.9688 z"
     fill="#e1e1e6"
     id="path31-0" />
  <path
     d="m 36.881279,15.213185 c 0,-0.7187 0.2396,-1.302 0.7188,-1.75 0.4895,-0.4479 1.0989,-0.6718 1.8281,-0.6718 0.7396,0 1.3489,0.2239 1.8281,0.6718 0.4896,0.448 0.7344,1.0313 0.7344,1.75 0,0.7084 -0.2396,1.2865 -0.7188,1.7344 -0.4791,0.4375 -1.0937,0.6563 -1.8437,0.6563 -0.7396,0 -1.349,-0.2188 -1.8281,-0.6563 -0.4792,-0.4479 -0.7188,-1.026 -0.7188,-1.7344 z"
     fill="#e1e1e6"
     id="path33" />
  <path
     d="m 50.115679,0.5257346 0.1406,1.95313 c 1.2083,-1.51042 2.8281,-2.26563 4.8594,-2.26563 1.7916,0 3.125,0.52604 4,1.57813 0.875,1.05208 1.3229,2.62502 1.3437,4.71872 V 17.431985 h -4.5156 V 6.6194846 c 0,-0.9583 -0.2083,-1.651 -0.625,-2.0781 -0.4167,-0.4375 -1.1094,-0.6563 -2.0781,-0.6563 -1.2709,0 -2.224,0.5417 -2.8594,1.625 V 17.431985 h -4.5156 V 0.5257346 Z"
     fill="#e1e1e6"
     id="path35" />
  <path
     d="m 71.678179,17.744485 c -2.4792,0 -4.5,-0.7604 -6.0625,-2.2813 -1.5521,-1.5208 -2.3282,-3.5468 -2.3282,-6.0781004 v -0.4375 c 0,-1.6979 0.3282,-3.2135 0.9844,-4.5468 0.6563,-1.3438 1.5834,-2.37505 2.7813,-3.0938 1.2083,-0.72917 2.5833,-1.09375 4.125,-1.09375 2.3125,0 4.1302,0.72917 5.4531,2.1875 1.3333,1.45835 2,3.52605 2,6.20315 v 1.8437004 h -10.7656 c 0.1458,1.1042 0.5833,1.9896 1.3125,2.6563 0.7396,0.6666 1.6719,1 2.7969,1 1.7395,0 3.0989,-0.6302 4.0781,-1.8907 l 2.2187,2.4844 c -0.6771,0.9584 -1.5937,1.7084 -2.75,2.25 -1.1562,0.5313 -2.4375,0.7969 -3.8437,0.7969 z m -0.5157,-13.8750004 c -0.8958,0 -1.625,0.3021 -2.1874,0.9063 -0.5521,0.6041 -0.9063,1.4687 -1.0626,2.5937 h 6.2813 v -0.3594 c -0.0208,-1 -0.2917,-1.7708 -0.8125,-2.3125 -0.5208,-0.5521 -1.2604,-0.8281 -2.2188,-0.8281 z"
     fill="#e1e1e6"
     id="path37" />
  <path
     d="m 95.912479,11.291385 2.2188,-10.7656504 h 4.359401 L 98.178179,17.431985 h -3.7813 l -3.2031,-10.6406004 -3.2031,10.6406004 h -3.7656 l -4.3126,-16.9062504 h 4.3594 l 2.2032,10.7500504 3.0937,-10.7500504 h 3.2656 z"
     fill="#e1e1e6"
     id="path39" />
  <path
     d="m 113.89728,12.760085 c 0,-0.5521 -0.276,-0.9843 -0.828,-1.2969 -0.542,-0.3229 -1.417,-0.6093 -2.626,-0.8593 -4.0203,-0.8438004 -6.0308,-2.5521004 -6.0308,-5.1250004 0,-1.5 0.6198,-2.75002 1.8594,-3.75002 1.25,-1.01042 2.8804,-1.51563 4.8904,-1.51563 2.146,0 3.86,0.50521 5.141,1.51563 1.292,1.01041 1.937,2.32292 1.937,3.93752 h -4.515 c 0,-0.6459 -0.209,-1.1771 -0.625,-1.5938 -0.417,-0.4271 -1.068,-0.6406 -1.953,-0.6406 -0.761,0 -1.349,0.1719 -1.766,0.5156 -0.4167,0.3438 -0.625,0.7813 -0.625,1.3125 0,0.5 0.2344,0.9063 0.703,1.2188 0.479,0.3021 1.281,0.5677 2.406,0.7969 1.125,0.2187 2.073,0.4687 2.844,0.75 2.386,0.875 3.578,2.3906004 3.578,4.5468004 0,1.5417 -0.661,2.7917 -1.984,3.75 -1.323,0.9479 -3.031,1.4219 -5.125,1.4219 -1.417,0 -2.6772,-0.25 -3.7814,-0.75 -1.0937,-0.5104 -1.9531,-1.2031 -2.5781,-2.0781 -0.625,-0.8854 -0.9375,-1.8386 -0.9375,-2.8594 h 4.2812 c 0.0417,0.8021 0.3386,1.4167 0.8907,1.8438 0.5521,0.427 1.2921,0.6406 2.2191,0.6406 0.864,0 1.515,-0.1615 1.953,-0.4844 0.448,-0.3333 0.672,-0.7656 0.672,-1.2969 z"
     fill="#e1e1e6"
     id="path41" />
</svg>
